<?xml version="1.0" encoding="UTF-8"?>
<svg id="Layer_1" data-name="Layer 1" xmlns="http://www.w3.org/2000/svg" xmlns:xlink="http://www.w3.org/1999/xlink" version="1.1" viewBox="0 0 3425 875">
  <defs>
    <style>
      .cls-1 {
        fill: none;
      }

      .cls-1, .cls-2, .cls-3, .cls-4, .cls-5 {
        stroke-width: 0px;
      }

      .cls-2 {
        fill: url(#linear-gradient);
      }

      .cls-3 {
        fill: #09a2dd;
      }

      .cls-4 {
        fill: #c40d40;
      }

      .cls-5 {
        fill: #f9f9f9;
      }
    </style>
    <linearGradient id="linear-gradient" x1="114.9" y1="551.8" x2="538.9" y2="97.5" gradientTransform="translate(0 876.4) scale(1 -1)" gradientUnits="userSpaceOnUse">
      <stop offset="0" stop-color="#e91476"/>
      <stop offset="1" stop-color="#f82d38"/>
    </linearGradient>
  </defs>
  <rect class="cls-1" x="1" y="-1538.1" width="3422.4" height="874"/>
  <g>
    <path class="cls-2" d="M164.8,273.7h437v437c0,21.6-4.1,42.7-12.4,62.6-8.3,19.9-20.4,37.9-35.4,53.2-15.3,15.3-33.3,27.2-53.2,35.4-19.9,8.3-41.3,12.4-62.6,12.4H164.8c-21.6,0-42.7-4.1-62.6-12.4-19.9-8.3-37.9-20.4-53.2-35.4-15.3-15.3-27.2-33.3-35.4-53.2-8.5-19.9-12.6-41-12.6-62.6v-273.1c0-21.6,4.1-42.7,12.4-62.6,8.3-19.9,20.4-37.9,35.4-53.2,15.3-15.3,33.3-27.2,53.2-35.4,19.9-8.3,41.3-12.4,62.6-12.4l.2-.2Z"/>
    <path class="cls-4" d="M601.8,273.7h-163.9v169h163.9v-169Z"/>
    <path class="cls-3" d="M683.6,383h-191.1v-191.1c0-37.9,11.2-74.8,32.3-106.3,21.1-31.3,51-55.8,85.7-70.4,35-14.6,73.3-18.2,110.5-10.9,37.1,7.3,71.1,25.5,97.8,52.4,26.7,26.7,44.9,60.7,52.4,97.8,7.3,37.1,3.6,75.5-10.9,110.5-14.6,35-39.1,64.8-70.4,85.7-31.6,21.1-68.5,32.3-106.3,32.3Z"/>
    <path class="cls-5" d="M629.2,164.5c7.3,0,14.3,2.9,19.4,8,5.1,5.1,8,12.1,8,19.4s-2.9,14.3-8,19.4c-5.1,5.1-12.1,8-19.4,8s-14.3-2.9-19.4-8c-5.1-5.1-8-12.1-8-19.4s2.9-14.3,8-19.4c5.1-5.1,12.1-8,19.4-8Z"/>
    <path class="cls-5" d="M738.3,164.5c7.3,0,14.3,2.9,19.4,8,5.1,5.1,8,12.1,8,19.4s-2.9,14.3-8,19.4c-5.1,5.1-12.1,8-19.4,8s-14.3-2.9-19.4-8c-5.1-5.1-8-12.1-8-19.4s2.9-14.3,8-19.4c5.1-5.1,12.1-8,19.4-8Z"/>
    <path class="cls-5" d="M3064.8,336.9c-3.6-3.6-8.2-6.8-13.1-8.7-4.9-1.9-10.2-2.9-15.5-2.9-10.7,0-20.9,4.6-28.4,12.1-7.5,7.8-11.6,18-11.4,28.6.2,10.4,4.6,20.6,12.1,27.9,7.5,7.3,17.7,11.7,28.2,11.7s10.4-1,15.3-3.2c4.9-1.9,9.2-5.1,12.9-8.7,3.6-3.6,6.6-8.3,8.7-13.1,2.2-4.9,2.9-10.2,2.9-15.3s-1-10.7-3.1-15.5c-1.9-4.9-5.1-9.2-8.7-13.1l.2.2Z"/>
    <path class="cls-5" d="M2745.2,453.4c-52.2-19.4-101.5-12.4-149.1,18.5v-18.9h-61.4v406.9h61.4v-138.6c32.1,23.1,71.9,33.3,111,28.4,38.8-4.1,74.5-22.8,99.5-52.4,43.5-49.8,48.3-127,11.7-184.5-17.2-27.2-43-48.1-73.3-59l.2-.2ZM2688.4,689.6c-52.2,0-92.2-40.1-92.2-93s39.8-92.5,92.5-92.5,91.8,40.1,91.5,92.5c0,52.9-39.6,93-91.8,93Z"/>
    <path class="cls-5" d="M1408.3,463.6c-31.6-19.7-66.5-24.3-102.9-19.2-42.7,5.8-77.9,25.5-102.9,61.4-20.9,30.1-28.9,63.8-26.7,99.8,2.9,50,23.6,91,66,119,31.3,20.6,66.5,26.9,103.7,25.2,36.4-1.7,68.9-13.4,95.9-38.1,8-7.3,14.6-16,22.3-24.5l-52-30.3c-28.9,37.9-76.7,42.2-113.4,30.3-31.1-10-49.8-31.6-57.3-64.1h233.5c3.2-16.8,3.4-33.7,1-50.7-6.6-46.1-26.7-83.8-67.2-109v.2ZM1241.8,571.7c3.2-31.1,29.9-70.2,82.8-72.3,52.9-2.2,84.7,34,88.8,72.3h-171.6Z"/>
    <path class="cls-5" d="M3411.9,537.9c-7.8-18.7-18.9-35.9-33.5-50.3-14.3-14.3-31.3-25.7-50.3-33.5-18.7-7.8-38.8-11.7-59.2-11.4-86.7,0-155.1,67-155.1,152s66.8,155.6,154.6,155.6,154.7-67.5,154.7-153.4-3.7-40.3-11.4-59.2l.2.2ZM3353.4,633.8c-4.6,11.2-11.4,21.4-20.2,29.6-8.7,8.5-18.9,15.1-30.1,19.4-11.2,4.4-23.3,6.6-35.5,6.3-51.9-.5-91.3-40.5-91-93,.2-53.2,39.3-92.7,92.5-92.5,53.2,0,91.5,40.1,91.3,94.9,0,12.1-2.2,24-7,35.2Z"/>
    <path class="cls-5" d="M2333.5,442.8c-87.9,0-156.4,66.5-156.6,152.9-.5,86.4,67.5,154.4,154.4,154.6,86.4,0,154.6-66.5,154.9-151.5.2-87.6-66.5-155.9-152.5-156.1h-.2ZM2328.9,689.4c-53.2-1.5-91.3-43.9-89.3-97.8,1.7-50.3,42.2-88.6,94.2-87.6,12.1,0,24,2.7,35.2,7.3,11.2,4.9,21.1,11.7,29.6,20.4,8.3,8.7,14.8,18.9,19.2,30.3,4.4,11.4,6.3,23.3,5.8,35.4-1.2,54.1-41.3,93.5-94.4,92h-.2Z"/>
    <path class="cls-5" d="M2101.9,487.4c-14.3-14.3-31.3-25.7-50.2-33.3-18.7-7.8-38.8-11.4-59.2-11.4-86.9,0-155.4,67.5-155.4,153.7s3.9,40.5,11.6,59.2c7.8,18.7,19.2,35.9,33.5,50.3,14.6,14.3,31.6,25.7,50.5,33.3,18.9,7.5,39.1,11.4,59.5,11.2,87.2,0,154.4-67,154.4-153.7s-3.6-40.3-11.2-59.2c-7.8-18.7-18.9-35.9-33.2-50.3l-.2.2ZM1991.4,689.4c-52.2,0-91.3-40.3-91.3-93.7s39.8-91.8,92-91.8,91.8,39.3,92,92.3c0,52.9-40.5,93.5-92.7,93.2Z"/>
    <path class="cls-5" d="M1025.7,671.2h-1.7c-27.2-73.6-54.4-147.1-81.6-220.7h-68.2c.7,2.7,1.5,4.6,2.2,6.8,36.4,92.7,72.6,185.7,108.8,278.7.5,2.2,1.7,3.9,3.6,5.1,1.9,1.2,4.1,1.7,6.1,1.5,19.4-.2,38.8-.5,58,0,2.4.5,4.8,0,7-1.5,1.9-1.5,3.4-3.4,4.1-5.8,32-82.1,63.9-163.9,95.9-245.7,5.1-12.9,10-25.7,15.1-38.8h-68.5c-27,73.6-53.9,147.1-80.8,220.7v-.2Z"/>
    <path class="cls-5" d="M1790.9,316.3h-61.9v426.1h61.9v-426.1Z"/>
    <path class="cls-5" d="M3067.6,450.3h-61.7v291.8h61.7v-291.8Z"/>
    <path class="cls-5" d="M2936.1,675.3c-4.1-4.1-9-7.3-14.3-9.5s-11.2-3.2-17-3.2-11.4,1-16.8,3.2-10.2,5.3-14.1,9.5c-4.1,4.1-7.3,8.7-9.5,14.1-2.2,5.3-3.2,10.9-3.2,16.8.2,11.4,5.1,22.1,13.1,30.1s19.2,12.4,30.4,12.4,22.3-4.4,30.6-12.1c8.2-8,13.1-18.7,13.3-30.1,0-5.8-1-11.7-3.2-17-2.2-5.3-5.3-10.2-9.5-14.3v.2Z"/>
    <path class="cls-5" d="M1676,452.7h-50.2c-57.5,0-104.2,46.6-104.2,104.1v185.7h62.6v-181.1c0-25.5,20.6-45.9,45.9-45.9h45.6v-62.6l.2-.2Z"/>
  </g>
</svg>