<svg width="448" height="150" viewBox="0 0 448 150" fill="none" xmlns="http://www.w3.org/2000/svg">
<rect width="447.841" height="149.765" rx="32" fill="white"/>
<mask id="mask0_4242_89424" style="mask-type:luminance" maskUnits="userSpaceOnUse" x="56" y="32" width="336" height="86">
<path d="M391.841 32H56V117.765H391.841V32Z" fill="white"/>
</mask>
<g mask="url(#mask0_4242_89424)">
<path d="M72.0809 58.8047H114.963V101.687C114.963 103.807 114.558 105.88 113.748 107.834C112.938 109.787 111.747 111.55 110.27 113.051C108.769 114.552 107.006 115.719 105.053 116.529C103.099 117.339 101.003 117.744 98.9062 117.744H72.0809C69.9606 117.744 67.888 117.339 65.9344 116.529C63.9809 115.719 62.218 114.528 60.7171 113.051C59.2162 111.55 58.0488 109.787 57.2388 107.834C56.405 105.88 56 103.807 56 101.687V74.8856C56 72.7653 56.405 70.6926 57.215 68.7391C58.025 66.7856 59.2162 65.0226 60.6932 63.5217C62.1941 62.0209 63.9571 60.8535 65.9106 60.0435C67.8641 59.2335 69.9606 58.8285 72.0571 58.8285L72.0809 58.8047Z" fill="url(#paint0_linear_4242_89424)"/>
<path d="M114.964 58.8047H98.8828V75.3859H114.964V58.8047Z" fill="#C40D40"/>
<path d="M122.991 69.5221H104.242V50.773C104.242 47.0565 105.338 43.4353 107.411 40.3382C109.483 37.265 112.414 34.8588 115.82 33.4294C119.251 32 123.015 31.6426 126.66 32.3574C130.305 33.0721 133.64 34.8588 136.261 37.5032C138.882 40.1238 140.668 43.4591 141.407 47.1041C142.122 50.7491 141.764 54.5133 140.335 57.9438C138.905 61.3744 136.499 64.3047 133.426 66.3536C130.329 68.4262 126.708 69.5221 122.991 69.5221Z" fill="#09A2DD"/>
<path d="M117.657 48.0781C118.372 48.0781 119.062 48.364 119.563 48.8643C120.063 49.3646 120.349 50.0555 120.349 50.7702C120.349 51.4849 120.063 52.1758 119.563 52.676C119.062 53.1763 118.372 53.4622 117.657 53.4622C116.942 53.4622 116.251 53.1763 115.751 52.676C115.251 52.1758 114.965 51.4849 114.965 50.7702C114.965 50.0555 115.251 49.3646 115.751 48.8643C116.251 48.364 116.942 48.0781 117.657 48.0781Z" fill="white"/>
<path d="M128.352 48.0781C129.067 48.0781 129.758 48.364 130.258 48.8643C130.758 49.3646 131.044 50.0555 131.044 50.7702C131.044 51.4849 130.758 52.1758 130.258 52.676C129.758 53.1763 129.067 53.4622 128.352 53.4622C127.638 53.4622 126.947 53.1763 126.446 52.676C125.946 52.1758 125.66 51.4849 125.66 50.7702C125.66 50.0555 125.946 49.3646 126.446 48.8643C126.947 48.364 127.638 48.0781 128.352 48.0781Z" fill="white"/>
<path d="M356.653 64.9952C356.296 64.6378 355.843 64.3281 355.367 64.1375C354.89 63.9469 354.366 63.8516 353.842 63.8516C352.794 63.8516 351.793 64.3043 351.055 65.0428C350.316 65.8052 349.911 66.8058 349.935 67.854C349.959 68.8784 350.388 69.879 351.126 70.5937C351.865 71.3084 352.865 71.7372 353.89 71.7372C354.414 71.7372 354.914 71.6419 355.391 71.4275C355.867 71.2369 356.296 70.9272 356.653 70.5699C357.011 70.2125 357.297 69.7599 357.511 69.2834C357.725 68.8069 357.797 68.2828 357.797 67.7825C357.797 67.2584 357.702 66.7343 357.487 66.2578C357.297 65.7814 356.987 65.3525 356.63 64.9714L356.653 64.9952Z" fill="#393939"/>
<path d="M325.301 76.4296C320.178 74.5237 315.342 75.2146 310.673 78.2401V76.3819H304.645V116.31H310.673V102.707C313.818 104.97 317.725 105.971 321.56 105.494C325.372 105.089 328.874 103.255 331.328 100.348C335.592 95.4646 336.069 87.8887 332.471 82.2425C330.78 79.5743 328.255 77.5254 325.277 76.4534L325.301 76.4296ZM319.726 99.6099C314.604 99.6099 310.673 95.679 310.673 90.4855C310.673 85.2919 314.58 81.4087 319.75 81.4087C324.848 81.4087 328.755 85.3396 328.731 90.4855C328.731 95.679 324.848 99.6099 319.726 99.6099Z" fill="#393939"/>
<path d="M194.103 77.4298C191.006 75.5001 187.575 75.0475 184.002 75.5478C179.809 76.1196 176.354 78.0493 173.901 81.5751C171.852 84.5293 171.066 87.8407 171.28 91.3666C171.566 96.2743 173.591 100.3 177.76 103.04C180.833 105.065 184.288 105.685 187.933 105.518C191.506 105.351 194.699 104.207 197.343 101.777C198.129 101.063 198.772 100.205 199.535 99.3713L194.437 96.3934C191.602 100.11 186.908 100.539 183.311 99.3713C180.262 98.3946 178.427 96.2743 177.689 93.0819H200.607C200.917 91.4381 200.94 89.7704 200.702 88.1028C200.059 83.5763 198.082 79.8837 194.103 77.406V77.4298ZM177.76 88.0313C178.07 84.9819 180.69 81.1463 185.884 80.9319C191.077 80.7175 194.198 84.2672 194.603 88.0313H177.76Z" fill="#393939"/>
<path d="M390.72 84.7227C389.958 82.8883 388.862 81.1968 387.432 79.7912C386.027 78.3856 384.359 77.2659 382.501 76.5036C380.666 75.7412 378.689 75.36 376.688 75.3839C368.183 75.3839 361.465 81.9592 361.465 90.2974C361.465 98.9454 368.016 105.568 376.64 105.568C385.145 105.568 391.816 98.9454 391.816 90.5118C391.816 88.5106 391.458 86.5571 390.696 84.6989L390.72 84.7227ZM384.978 94.133C384.526 95.2289 383.859 96.2295 383.001 97.0395C382.143 97.8733 381.143 98.5165 380.047 98.9454C378.951 99.3742 377.76 99.5886 376.569 99.5648C371.47 99.5171 367.611 95.5862 367.635 90.4403C367.659 85.223 371.494 81.3397 376.712 81.3636C381.929 81.3636 385.693 85.2945 385.669 90.6786C385.669 91.8698 385.455 93.0371 384.978 94.133Z" fill="#393939"/>
<path d="M284.898 75.3828C276.274 75.3828 269.555 81.9104 269.532 90.3916C269.484 98.8728 276.154 105.543 284.683 105.567C293.164 105.567 299.859 99.0395 299.883 90.7013C299.907 82.101 293.355 75.4066 284.922 75.3828H284.898ZM284.445 99.5875C279.228 99.4446 275.487 95.2754 275.678 89.9866C275.845 85.0551 279.823 81.291 284.922 81.3863C286.113 81.3863 287.28 81.6484 288.376 82.101C289.472 82.5775 290.449 83.2445 291.282 84.1022C292.092 84.9598 292.736 85.9604 293.165 87.0801C293.593 88.1998 293.784 89.3672 293.736 90.5584C293.617 95.871 289.686 99.7304 284.469 99.5875H284.445Z" fill="#393939"/>
<path d="M262.168 79.7663C260.762 78.3607 259.095 77.241 257.237 76.5025C255.402 75.7401 253.425 75.3828 251.424 75.3828C242.895 75.3828 236.176 82.0057 236.176 90.4631C236.176 92.4643 236.558 94.4416 237.32 96.276C238.082 98.1104 239.202 99.8019 240.608 101.208C242.037 102.613 243.705 103.733 245.563 104.471C247.421 105.21 249.399 105.591 251.4 105.567C259.952 105.567 266.552 98.9919 266.552 90.4869C266.552 88.4857 266.194 86.5322 265.456 84.674C264.693 82.8395 263.597 81.1481 262.192 79.7425L262.168 79.7663ZM251.328 99.5875C246.206 99.5875 242.371 95.6328 242.371 90.3916C242.371 85.2695 246.278 81.3863 251.4 81.3863C256.522 81.3863 260.405 85.2457 260.429 90.4392C260.429 95.6328 256.45 99.6113 251.328 99.5875Z" fill="#393939"/>
<path d="M156.557 97.804H156.39C153.722 90.5855 151.054 83.3669 148.386 76.1484H141.691C141.763 76.4105 141.834 76.6011 141.906 76.8155C145.479 85.9161 149.029 95.0405 152.579 104.165C152.626 104.379 152.746 104.546 152.936 104.665C153.127 104.784 153.341 104.832 153.532 104.808C155.438 104.784 157.343 104.761 159.225 104.808C159.464 104.856 159.702 104.808 159.916 104.665C160.107 104.522 160.25 104.332 160.321 104.093C163.466 96.0411 166.587 88.0125 169.732 79.984C170.232 78.7214 170.708 77.4587 171.209 76.1722H164.49C161.846 83.3908 159.202 90.6093 156.557 97.8278V97.804Z" fill="#393939"/>
<path d="M231.649 62.9688H225.574V104.779H231.649V62.9688Z" fill="#393939"/>
<path d="M356.938 76.125H350.887V104.761H356.938V76.125Z" fill="#393939"/>
<path d="M344.026 98.2076C343.621 97.8026 343.144 97.4929 342.62 97.2785C342.096 97.0641 341.524 96.9688 340.952 96.9688C340.381 96.9688 339.833 97.0641 339.309 97.2785C338.784 97.4929 338.308 97.8026 337.927 98.2076C337.522 98.6126 337.211 99.0652 336.997 99.5893C336.782 100.113 336.688 100.661 336.688 101.233C336.712 102.353 337.188 103.401 337.974 104.187C338.761 104.973 339.856 105.402 340.952 105.402C342.072 105.402 343.143 104.973 343.953 104.211C344.763 103.425 345.241 102.377 345.264 101.257C345.264 100.685 345.168 100.113 344.954 99.5893C344.739 99.0652 344.431 98.5887 344.026 98.1837V98.2076Z" fill="#393939"/>
<path d="M220.381 76.3594H215.45C209.804 76.3594 205.23 80.9335 205.23 86.5797V104.805H211.376V87.0323C211.376 84.5308 213.401 82.5297 215.879 82.5297H220.358V76.3832L220.381 76.3594Z" fill="#393939"/>
</g>
<defs>
<linearGradient id="paint0_linear_4242_89424" x1="66.8492" y1="64.1092" x2="108.459" y2="108.684" gradientUnits="userSpaceOnUse">
<stop stop-color="#E91476"/>
<stop offset="1" stop-color="#F82D38"/>
</linearGradient>
</defs>
</svg>
